<svg id="visual" viewBox="0 0 960 300" width="960" height="300" xmlns="http://www.w3.org/2000/svg" xmlns:xlink="http://www.w3.org/1999/xlink" version="1.1"><rect x="0" y="0" width="960" height="300" fill="#001220"></rect><defs><linearGradient id="grad1_0" x1="68.8%" y1="0%" x2="100%" y2="100%"><stop offset="-14.000000000000007%" stop-color="#001220" stop-opacity="1"></stop><stop offset="114.00000000000001%" stop-color="#001220" stop-opacity="1"></stop></linearGradient></defs><defs><linearGradient id="grad2_0" x1="0%" y1="0%" x2="31.3%" y2="100%"><stop offset="-14.000000000000007%" stop-color="#001220" stop-opacity="1"></stop><stop offset="114.00000000000001%" stop-color="#001220" stop-opacity="1"></stop></linearGradient></defs><g transform="translate(960, 0)"><path d="M0 270C-26.3 243.5 -52.5 217 -85.7 206.9C-118.9 196.9 -159.1 203.5 -188.8 188.8C-218.5 174.1 -237.7 138.3 -249.4 103.3C-261.2 68.3 -265.6 34.2 -270 0L0 0Z" fill="#FBAE3C"></path></g><g transform="translate(0, 300)"><path d="M0 -270C33.1 -263 66.3 -255.9 101.4 -244.8C136.6 -233.7 173.7 -218.6 190.9 -190.9C208.1 -163.3 205.4 -123.1 215.3 -89.2C225.1 -55.3 247.6 -27.6 270 0L0 0Z" fill="#FBAE3C"></path></g></svg>